<?xml version="1.0" encoding="UTF-8"?>
<!DOCTYPE svg PUBLIC "-//W3C//DTD SVG 1.1//EN" "http://www.w3.org/Graphics/SVG/1.1/DTD/svg11.dtd">
<svg version="1.1" xmlns="http://www.w3.org/2000/svg" xmlns:xlink="http://www.w3.org/1999/xlink" x="0" y="0" width="179.2" height="204.8" viewBox="0, 0, 179.2, 204.8">
  <g id="Layer_1">
    <path d="M25.6,153.6 L76.8,153.6 L76.8,166.4 L25.6,166.4 L25.6,153.6 z M89.6,76.8 L25.6,76.8 L25.6,89.6 L89.6,89.6 L89.6,76.8 z M115.2,115.2 L115.2,89.6 L76.8,128 L115.2,166.4 L115.2,140.8 L179.2,140.8 L179.2,115.2 L115.2,115.2 z M57.6,102.4 L25.6,102.4 L25.6,115.2 L57.6,115.2 L57.6,102.4 z M25.6,140.8 L57.6,140.8 L57.6,128 L25.6,128 L25.6,140.8 z M140.8,153.6 L153.6,153.6 L153.6,179.2 C153.4,182.8 152.2,185.8 149.8,188.2 C147.4,190.6 144.4,191.8 140.8,192 L12.8,192 C5.8,192 -0,186.2 -0,179.2 L-0,38.4 C-0,31.4 5.8,25.6 12.8,25.6 L51.2,25.6 C51.2,11.4 62.6,0 76.8,0 C91,0 102.4,11.4 102.4,25.6 L140.8,25.6 C147.8,25.6 153.6,31.4 153.6,38.4 L153.6,102.4 L140.8,102.4 L140.8,64 L12.8,64 L12.8,179.2 L140.8,179.2 L140.8,153.6 z M25.6,51.2 L128,51.2 C128,44.2 122.2,38.4 115.2,38.4 L102.4,38.4 C95.4,38.4 89.6,32.6 89.6,25.6 C89.6,18.6 83.8,12.8 76.8,12.8 C69.8,12.8 64,18.6 64,25.6 C64,32.6 58.2,38.4 51.2,38.4 L38.4,38.4 C31.4,38.4 25.6,44.2 25.6,51.2 z" fill="#FFFFFF"/>
  </g>
</svg>
